<?xml version="1.0" standalone="no"?>
<!DOCTYPE svg PUBLIC "-//W3C//DTD SVG 20010904//EN" "http://www.w3.org/TR/2001/REC-SVG-20010904/DTD/svg10.dtd">
<svg version="1.0" xmlns="http://www.w3.org/2000/svg"
    width="25.000000pt" height="25.000000pt" viewBox="0 0 166.000000 158.000000"
    preserveAspectRatio="xMidYMid meet">
    <metadata> Created by potrace 1.16, written by Peter Selinger 2001-2019 </metadata>
    <g transform="translate(0.000000,158.000000) scale(0.100000,-0.100000)"
        fill="white" stroke="none">
        <path
            d="M714 1420 c-130 -19 -252 -80 -352 -175 -123 -116 -185 -254 -186
-415 0 -108 20 -169 77 -228 53 -55 75 -62 197 -62 186 0 210 -20 210 -175 0
-85 -4 -108 -22 -145 l-23 -45 -62 -3 -63 -3 0 56 c0 64 -13 95 -38 95 -32 0
-42 -22 -42 -88 l0 -65 -40 45 c-47 54 -92 77 -115 58 -22 -18 -18 -40 12 -72
l27 -28 -96 0 c-74 0 -100 -4 -112 -16 -21 -20 -20 -30 4 -54 20 -20 33 -20
686 -20 439 0 672 4 685 10 21 12 25 50 7 68 -8 8 -48 12 -115 12 -57 0 -103
3 -103 6 0 3 11 15 25 26 42 33 29 78 -22 78 -8 0 -41 -25 -73 -56 -34 -32
-66 -54 -75 -52 -15 3 -14 7 6 32 26 32 17 59 -20 64 -26 4 -45 -10 -82 -60
l-27 -38 -15 23 c-38 59 -51 230 -22 287 24 46 49 54 191 60 121 5 134 7 171
32 55 36 101 128 109 218 8 86 -16 194 -62 290 -46 93 -168 219 -259 267 -116
61 -269 90 -381 73z m116 -229 c14 -28 13 -194 -2 -209 -18 -18 -56 -14 -68 7
-5 11 -10 56 -10 101 0 93 10 120 45 120 14 0 29 -8 35 -19z m-201 -276 l116
-114 3 -128 3 -128 -51 53 -51 52 -81 0 -80 0 -79 77 c-79 76 -93 105 -67 131
23 23 48 12 117 -53 l68 -65 67 0 c36 0 66 4 66 9 0 4 -47 54 -105 110 -105
102 -122 130 -93 159 26 26 54 10 167 -103z m499 103 c27 -27 11 -55 -93 -158
-58 -58 -105 -108 -105 -112 0 -5 32 -8 71 -8 l71 0 67 65 c37 36 74 65 83 65
24 0 51 -36 43 -59 -3 -11 -40 -52 -82 -91 l-77 -70 -78 0 -79 0 -46 -50 c-25
-27 -50 -50 -54 -50 -15 0 -11 218 5 248 22 42 221 232 243 232 10 0 24 -5 31
-12z" />
    </g>
</svg>