<?xml version="1.0" standalone="no"?>
<!DOCTYPE svg PUBLIC "-//W3C//DTD SVG 20010904//EN"
 "http://www.w3.org/TR/2001/REC-SVG-20010904/DTD/svg10.dtd">
<svg version="1.0" xmlns="http://www.w3.org/2000/svg"
 width="25.000000pt" height="25.000000pt" viewBox="0 0 119.000000 137.000000"
 preserveAspectRatio="xMidYMid meet">
<metadata>
Created by potrace 1.16, written by Peter Selinger 2001-2019
</metadata>
<g transform="translate(0.000000,137.000000) scale(0.100000,-0.100000)"
fill="white" stroke="none">
<path d="M569 1245 c-15 -8 -36 -34 -47 -59 -18 -37 -31 -49 -77 -70 -51 -23
-61 -24 -104 -14 -40 9 -53 8 -85 -7 -57 -27 -84 -103 -55 -156 8 -15 5 -31
-14 -72 -14 -29 -27 -61 -31 -72 -3 -11 -19 -26 -35 -32 -36 -13 -64 -55 -64
-94 0 -33 31 -72 72 -89 21 -8 34 -27 53 -75 24 -62 24 -66 9 -115 -11 -37
-20 -50 -34 -50 -10 0 -32 -13 -48 -29 -41 -41 -41 -101 0 -141 57 -58 127
-46 169 29 16 28 32 41 63 50 37 11 46 10 105 -15 52 -22 65 -32 74 -59 35
-105 156 -104 191 2 9 28 21 39 67 59 55 25 58 25 107 10 40 -12 53 -22 62
-45 11 -31 65 -71 96 -71 53 0 107 59 107 116 0 29 -57 94 -83 94 -10 0 -22
19 -32 50 -17 51 -17 51 10 115 23 52 35 68 64 82 47 24 70 77 49 119 -7 16
-29 39 -48 52 -19 12 -39 33 -44 45 -5 12 -18 40 -28 62 -16 35 -17 46 -6 89
10 40 18 51 44 62 18 8 42 26 54 41 42 54 7 141 -65 159 -35 9 -96 -25 -114
-63 -12 -24 -28 -36 -63 -48 -46 -15 -48 -15 -105 12 -48 23 -62 36 -79 72
-30 65 -80 86 -135 56z m113 -155 c6 -20 19 -32 36 -36 15 -4 48 -18 74 -31
l47 -25 34 21 c82 50 129 0 72 -75 l-26 -33 30 -53 c16 -29 31 -65 35 -79 4
-17 15 -29 30 -33 21 -5 24 -10 17 -34 -4 -15 -6 -43 -4 -62 4 -29 0 -37 -18
-45 -14 -6 -27 -26 -34 -52 -7 -23 -22 -58 -34 -77 l-22 -36 25 -33 c53 -69
21 -123 -50 -86 -21 12 -43 25 -47 29 -5 4 -34 -5 -64 -21 -30 -16 -63 -29
-73 -29 -11 0 -22 -12 -28 -30 -10 -26 -14 -28 -39 -21 -15 4 -41 4 -57 0 -17
-5 -30 -7 -31 -6 -1 1 -6 14 -13 30 -6 15 -18 27 -25 27 -8 0 -40 13 -72 29
l-58 29 -38 -25 c-49 -32 -83 -28 -87 11 -2 18 4 40 17 57 26 36 26 41 -3 92
-13 23 -27 56 -31 73 -3 18 -15 35 -28 41 -19 9 -22 18 -21 73 1 53 4 65 21
71 11 4 24 24 32 50 7 24 22 56 32 71 24 33 24 42 -2 77 -23 32 -22 69 3 85
13 7 29 4 66 -13 l49 -23 34 21 c19 12 51 26 71 31 27 8 40 18 44 35 6 22 10
24 44 19 21 -3 46 -1 56 5 25 14 24 15 36 -19z"/>
<path d="M508 961 c-73 -29 -123 -74 -157 -143 -31 -61 -40 -108 -21 -108 6 0
10 -13 10 -29 0 -17 -4 -33 -10 -36 -16 -10 -12 -37 18 -100 41 -86 140 -164
210 -165 20 0 22 5 22 49 0 46 -2 49 -30 54 -16 4 -47 23 -70 43 -109 98 -79
286 55 340 44 19 45 20 45 67 0 54 -3 55 -72 28z"/>
<path d="M650 931 c0 -48 1 -50 35 -61 47 -15 102 -73 117 -122 11 -37 12 -38
59 -38 l49 0 -6 33 c-16 89 -97 185 -182 217 -29 11 -57 20 -62 20 -6 0 -10
-22 -10 -49z"/>
<path d="M792 589 c-17 -37 -36 -58 -70 -80 -25 -16 -52 -29 -59 -29 -9 0 -13
-16 -13 -50 0 -58 9 -62 80 -29 93 42 148 106 168 197 l10 42 -47 0 c-46 0
-46 0 -69 -51z"/>
</g>
</svg>