<?xml version="1.0" standalone="no"?>
<!DOCTYPE svg PUBLIC "-//W3C//DTD SVG 20010904//EN"
 "http://www.w3.org/TR/2001/REC-SVG-20010904/DTD/svg10.dtd">
<svg version="1.0" xmlns="http://www.w3.org/2000/svg"
 width="1024.000000pt" height="1024.000000pt" viewBox="0 0 1024.000000 1024.000000"
 preserveAspectRatio="xMidYMid meet">
<metadata>
Created by potrace 1.16, written by Peter Selinger 2001-2019
</metadata>
<g transform="translate(0.000000,1024.000000) scale(0.100000,-0.100000)"
fill="red" stroke="none">
<path d="M5023 8075 c-137 -37 -286 -156 -345 -275 -15 -30 -192 -392 -394
-805 -423 -863 -700 -1426 -1152 -2335 -627 -1263 -804 -1626 -828 -1694 -85
-244 -34 -515 136 -723 97 -118 204 -190 352 -235 l73 -23 2265 -3 c2560 -3
2351 -9 2525 78 153 76 244 166 319 316 65 131 81 202 81 359 -1 214 114 -37
-1025 2250 -340 682 -654 1314 -698 1405 -44 91 -157 323 -252 515 -95 193
-230 471 -302 619 -71 148 -147 295 -168 326 -70 103 -177 182 -299 220 -75
24 -209 26 -288 5z m250 -822 c58 -120 219 -447 358 -728 138 -280 316 -640
394 -800 78 -159 315 -636 525 -1060 210 -423 424 -855 475 -960 51 -104 174
-353 274 -553 165 -331 181 -368 181 -415 0 -88 -49 -148 -135 -167 -36 -8
-666 -10 -2215 -8 -2053 3 -2167 4 -2198 21 -17 10 -44 35 -58 57 -23 34 -26
48 -22 97 5 68 31 124 438 948 472 953 692 1399 1057 2145 53 107 220 447 373
755 152 308 312 633 356 722 43 90 82 163 85 163 3 0 53 -98 112 -217z"/>
<path d="M5005 6539 c-166 -58 -277 -191 -307 -369 -11 -62 -7 -125 35 -582
54 -587 134 -1435 143 -1520 l7 -58 283 0 c221 0 284 3 284 13 0 17 15 184 55
607 154 1637 142 1478 121 1559 -38 148 -129 262 -262 328 -74 36 -83 38 -188
41 -92 2 -121 -1 -171 -19z"/>
<path d="M5054 3745 c-188 -41 -328 -185 -374 -384 -50 -216 92 -481 295 -552
77 -27 232 -36 306 -19 219 51 369 241 370 470 1 231 -155 435 -371 484 -82
19 -143 19 -226 1z"/>
</g>
</svg>
