<?xml version="1.0" standalone="no"?>
<!DOCTYPE svg PUBLIC "-//W3C//DTD SVG 20010904//EN"
 "http://www.w3.org/TR/2001/REC-SVG-20010904/DTD/svg10.dtd">
<svg version="1.0" xmlns="http://www.w3.org/2000/svg"
 width="25.000000pt" height="25.000000pt" viewBox="0 0 126.000000 128.000000"
 preserveAspectRatio="xMidYMid meet">
<metadata>
Created by potrace 1.16, written by Peter Selinger 2001-2019
</metadata>
<g transform="translate(0.000000,128.000000) scale(0.100000,-0.100000)"
fill="white" stroke="none">
<path d="M575 1146 c-113 -28 -219 -101 -292 -200 -75 -101 -103 -188 -102
-311 1 -136 44 -234 85 -193 15 15 15 20 2 55 -23 56 -30 141 -19 210 37 234
284 420 509 384 89 -14 184 -62 251 -125 152 -146 183 -356 81 -545 -37 -68
-39 -91 -5 -91 31 0 67 54 101 152 33 95 33 235 0 329 -89 253 -355 398 -611
335z"/>
<path d="M630 1019 c-114 -22 -224 -108 -277 -216 -25 -52 -28 -68 -28 -158 0
-95 2 -105 34 -167 18 -37 30 -71 26 -77 -3 -6 -21 -11 -38 -11 -28 0 -48 -15
-139 -107 -102 -103 -112 -119 -109 -171 3 -57 87 -93 137 -58 24 17 196 192
207 211 4 7 3 25 -2 38 -13 35 11 57 37 35 32 -29 98 -56 159 -68 202 -36 392
98 433 307 17 85 6 159 -36 242 -55 109 -146 177 -274 201 -60 11 -67 11 -130
-1z m170 -90 c59 -18 129 -78 164 -139 28 -50 31 -63 31 -145 0 -104 -18 -148
-86 -216 -60 -60 -118 -83 -209 -83 -89 -1 -152 25 -215 88 -137 138 -110 364
55 463 86 52 161 61 260 32z"/>
<path d="M673 826 c-44 -39 -76 -45 -111 -20 -22 15 -25 15 -44 -3 -11 -10
-28 -34 -38 -53 -47 -95 -29 -195 50 -272 84 -81 175 -89 256 -23 25 21 57 38
72 39 27 1 51 21 52 42 0 17 -56 37 -83 31 -12 -4 -40 -22 -62 -42 -46 -41
-72 -50 -121 -41 -42 8 -108 65 -123 106 -12 37 -8 37 54 0 71 -42 105 -40
161 12 53 49 97 54 145 19 36 -27 46 -26 55 1 15 47 -102 111 -162 88 -15 -6
-45 -26 -66 -45 -21 -19 -45 -35 -53 -35 -9 0 -37 11 -63 25 -26 14 -53 25
-59 25 -15 0 -17 28 -4 49 8 12 14 13 36 3 48 -22 88 -15 125 23 41 43 76 51
123 29 62 -29 90 1 42 46 -19 18 -40 25 -84 28 -56 4 -60 3 -98 -32z"/>
<path d="M865 230 c-73 -34 -160 -43 -249 -25 -89 18 -109 15 -104 -17 7 -51
202 -77 319 -42 89 27 131 52 127 77 -4 29 -41 32 -93 7z"/>
</g>
</svg>
