<?xml version="1.0" standalone="no"?>
<!DOCTYPE svg PUBLIC "-//W3C//DTD SVG 20010904//EN"
 "http://www.w3.org/TR/2001/REC-SVG-20010904/DTD/svg10.dtd">
<svg version="1.0" xmlns="http://www.w3.org/2000/svg"
 width="1024.000000pt" height="1024.000000pt" viewBox="0 0 1024.000000 1024.000000"
 preserveAspectRatio="xMidYMid meet">
   <defs>
        <linearGradient id="blueGradient" x1="0%" y1="0%" x2="0%" y2="100%">
       <stop offset="0%" style="stop-color:#b3d1ff;stop-opacity:1" /> <!-- Light Sky Blue -->
            <stop offset="25%" style="stop-color:#99b3ff;stop-opacity:1" /> <!-- Slightly Darker Blue -->
            <stop offset="50%" style="stop-color:#4d79ff;stop-opacity:1" /> <!-- Medium Blue -->
            <stop offset="75%" style="stop-color:#1a53ff;stop-opacity:1" /> <!-- Royal Blue -->
            <stop offset="100%" style="stop-color:#0033cc;stop-opacity:1" />

        </linearGradient>
    </defs>
<metadata>
Created by potrace 1.16, written by Peter Selinger 2001-2019
</metadata>
<g transform="translate(0.000000,1024.000000) scale(0.100000,-0.100000)"
fill="url(#blueGradient)" stroke="none">
<path d="M4775 8215 c-363 -48 -757 -179 -1086 -360 -316 -174 -658 -438 -876
-676 -147 -160 -157 -171 -225 -261 -245 -320 -407 -638 -514 -1008 -77 -266
-107 -449 -125 -752 -29 -474 41 -928 211 -1384 92 -244 164 -384 326 -629
211 -321 509 -635 794 -841 218 -156 439 -283 664 -379 121 -51 329 -125 354
-125 8 0 63 24 121 54 127 65 246 101 401 121 251 34 197 12 1285 504 203 92
286 138 397 223 524 397 657 1057 308 1527 -67 90 -389 435 -899 961 -232 239
-233 241 -215 262 29 32 120 91 209 135 191 96 348 128 585 120 224 -8 385
-48 605 -151 368 -172 737 -531 917 -891 101 -200 128 -321 127 -559 0 -167
-11 -184 -23 -36 -19 253 -137 564 -304 800 -37 52 -119 147 -182 211 -409
413 -1007 545 -1513 333 -48 -20 -87 -40 -85 -44 2 -5 56 -56 121 -115 l118
-107 82 23 c100 28 337 38 444 19 345 -59 698 -330 872 -670 163 -316 198
-631 111 -977 -57 -224 -216 -502 -390 -683 -92 -95 -94 -94 -24 9 92 135 182
358 225 561 33 149 33 410 1 557 -84 388 -289 688 -587 858 -156 88 -355 137
-490 119 l-49 -6 39 -36 c22 -20 92 -85 155 -146 63 -60 149 -136 190 -168
318 -251 470 -538 470 -889 0 -420 -257 -880 -664 -1188 -230 -175 -446 -281
-1116 -551 -303 -122 -649 -272 -650 -282 -1 -25 549 -21 760 6 547 71 1070
266 1490 554 158 109 276 207 416 348 273 275 475 553 629 869 125 256 258
691 258 845 0 81 -68 291 -147 455 -166 344 -509 720 -871 953 -168 109 -479
230 -685 268 -133 24 -418 24 -555 0 -254 -46 -494 -150 -667 -289 l-61 -49
-73 73 c-41 41 -74 77 -74 81 0 15 296 227 393 281 373 207 797 262 1211 156
383 -98 703 -290 1060 -639 227 -221 445 -498 523 -665 l28 -60 3 115 c12 419
-95 919 -286 1337 -359 783 -953 1334 -1806 1673 l-129 51 -101 -69 c-149
-102 -282 -179 -550 -319 -509 -265 -1176 -664 -1394 -833 -217 -169 -325
-366 -325 -595 0 -103 18 -175 68 -275 40 -79 86 -138 191 -245 207 -210 1433
-1475 1659 -1712 61 -64 124 -135 141 -159 74 -103 84 -245 26 -367 -39 -83
-133 -182 -212 -222 -82 -42 -407 -190 -738 -336 -788 -349 -971 -405 -1339
-416 l-193 -6 -82 54 c-108 70 -257 191 -336 272 l-63 64 68 -32 c216 -104
499 -153 770 -135 292 20 489 76 893 257 346 156 508 240 615 319 83 62 385
356 385 374 0 5 -51 62 -112 127 -62 65 -189 202 -283 303 -222 241 -494 527
-900 950 -456 475 -657 693 -728 790 -18 24 -18 23 -13 -85 7 -160 54 -313
130 -427 36 -54 68 -90 481 -535 410 -442 497 -535 586 -628 110 -115 326
-348 370 -399 25 -29 28 -36 13 -28 -12 6 -109 105 -215 219 -107 114 -261
279 -344 367 -374 397 -775 830 -856 923 -276 319 -407 659 -371 957 14 110
51 246 93 335 74 160 219 325 389 443 114 78 444 279 860 523 168 98 364 213
437 256 73 42 166 103 208 134 95 72 287 254 282 269 -4 12 -159 41 -272 51
l-80 6 -82 -60 c-45 -33 -234 -147 -420 -254 -591 -339 -944 -556 -1142 -705
-236 -178 -417 -414 -505 -660 -73 -204 -92 -482 -48 -689 64 -299 211 -572
462 -858 69 -79 397 -429 631 -675 102 -107 237 -249 299 -315 62 -66 194
-204 293 -307 l179 -187 -64 -42 c-131 -85 -585 -294 -789 -362 -455 -152
-932 -91 -1287 165 -101 72 -259 222 -342 323 -220 268 -350 610 -401 1050
-17 148 -14 505 5 660 68 537 249 981 587 1432 82 110 334 372 449 468 238
197 444 323 870 529 125 60 247 131 425 246 355 230 355 231 355 236 0 7 -57
3 -165 -11z m1795 -750 c187 -30 428 -123 581 -225 79 -53 206 -153 279 -221
l55 -51 -55 30 c-135 74 -360 145 -562 177 -156 25 -466 31 -614 11 -301 -39
-628 -149 -874 -294 -227 -133 -681 -461 -857 -619 l-43 -38 207 -215 c203
-212 630 -652 993 -1025 409 -420 834 -867 877 -922 50 -64 100 -159 129 -243
26 -75 26 -267 0 -360 -41 -147 -118 -280 -235 -402 -107 -113 -203 -173 -486
-304 -508 -235 -1213 -540 -1375 -595 -193 -64 -375 -58 -528 17 -76 38 -76
38 -42 41 162 16 490 112 695 204 22 9 101 43 175 74 120 51 481 210 630 278
30 13 123 55 205 92 83 37 170 79 195 93 137 79 272 205 339 316 118 196 132
445 37 642 -47 98 -102 168 -267 340 -79 82 -229 240 -333 350 -105 109 -406
422 -671 694 -720 741 -720 741 -751 801 -26 48 -29 64 -29 149 0 86 3 101 29
153 62 122 160 191 946 667 413 249 632 345 880 385 118 18 354 18 470 0z
m138 -576 c339 -36 686 -185 953 -408 108 -90 170 -155 254 -267 60 -79 175
-261 175 -277 0 -5 -19 8 -42 28 -24 21 -77 67 -118 102 -183 159 -505 342
-734 418 -267 88 -450 119 -706 118 -475 -2 -870 -148 -1296 -481 l-102 -80
-81 82 -81 82 122 90 c404 300 665 446 931 523 105 31 281 68 352 74 90 8 282
6 373 -4z"/>
<path d="M2980 6507 c-243 -388 -355 -757 -376 -1237 -22 -486 131 -987 419
-1377 86 -117 258 -295 348 -360 269 -197 548 -281 837 -253 168 16 303 63
510 178 l53 29 -177 184 c-528 549 -711 751 -938 1033 -87 108 -161 195 -164
192 -13 -14 124 -259 205 -368 129 -171 356 -417 473 -512 30 -24 23 -22 -45
14 -226 118 -463 369 -592 625 -37 73 -97 232 -114 300 -6 28 -28 73 -48 100
-73 98 -88 121 -145 214 -32 52 -80 140 -107 195 -27 55 -50 101 -52 102 -8 8
3 -383 13 -461 21 -171 97 -420 177 -579 160 -319 367 -551 653 -733 83 -53
228 -131 302 -163 32 -14 58 -28 58 -31 0 -23 -218 -26 -318 -4 -254 53 -496
222 -693 485 -83 110 -195 321 -243 457 -100 285 -135 589 -102 886 16 139 53
315 77 359 7 13 5 42 -8 101 -13 60 -17 127 -17 252 0 180 15 278 65 410 11
31 19 58 17 60 -2 3 -33 -42 -68 -98z"/>
</g>
</svg>
