<?xml version="1.0" standalone="no"?>
<!DOCTYPE svg PUBLIC "-//W3C//DTD SVG 20010904//EN"
 "http://www.w3.org/TR/2001/REC-SVG-20010904/DTD/svg10.dtd">
<svg version="1.0" xmlns="http://www.w3.org/2000/svg"
 width="25.000000pt" height="25.000000pt" viewBox="0 0 127.000000 122.000000"
 preserveAspectRatio="xMidYMid meet">
<metadata>
Created by potrace 1.16, written by Peter Selinger 2001-2019
</metadata>
<g transform="translate(0.000000,122.000000) scale(0.100000,-0.100000)"
fill="white" stroke="none">
<path d="M673 1033 c-11 -10 -48 -67 -83 -128 -34 -60 -140 -240 -235 -400
-244 -410 -223 -370 -205 -402 l16 -28 524 -3 525 -2 18 21 c30 37 36 23 -151
339 -94 159 -115 190 -127 190 -5 -1 -116 -102 -245 -225 l-235 -225 -98 0
c-54 0 -96 3 -94 8 2 4 30 51 63 106 l58 98 21 -24 21 -25 31 26 c17 14 65 57
108 96 l77 69 18 -24 19 -25 35 34 c20 19 36 39 36 44 0 4 -18 35 -41 68 l-40
60 -37 -30 c-20 -16 -55 -48 -77 -71 -40 -41 -104 -93 -93 -74 26 43 211 350
213 352 1 1 17 -22 36 -52 l34 -55 42 37 41 37 -58 104 c-71 126 -82 136 -117
104z m347 -710 c46 -76 85 -141 87 -146 2 -4 -31 -7 -74 -7 l-78 1 -62 90
c-35 49 -63 95 -63 100 0 11 90 98 101 99 4 0 44 -62 89 -137z"/>
</g>
</svg>
