<?xml version="1.0" standalone="no"?>
<!DOCTYPE svg PUBLIC "-//W3C//DTD SVG 20010904//EN"
 "http://www.w3.org/TR/2001/REC-SVG-20010904/DTD/svg10.dtd">
<svg version="1.0" xmlns="http://www.w3.org/2000/svg"
 width="25.000000pt" height="25.000000pt" viewBox="0 0 120.000000 131.000000"
 preserveAspectRatio="xMidYMid meet">
<metadata>
Created by potrace 1.16, written by Peter Selinger 2001-2019
</metadata>
<g transform="translate(0.000000,131.000000) scale(0.100000,-0.100000)"
fill="white" stroke="none">
<path d="M317 1213 c-4 -3 -7 -28 -7 -54 0 -41 -3 -48 -24 -53 -37 -9 -84 -53
-97 -91 -12 -31 -17 -34 -58 -37 -38 -3 -46 -6 -46 -23 0 -17 8 -20 46 -23 41
-3 48 -7 59 -33 14 -33 68 -84 99 -94 17 -5 21 -15 21 -49 0 -44 19 -74 40
-61 5 3 10 28 10 54 0 47 1 48 42 64 l42 17 38 -37 c29 -29 38 -45 38 -71 0
-25 8 -42 30 -62 45 -42 42 -94 -8 -143 -47 -46 -100 -52 -125 -13 -48 73
-157 35 -157 -55 0 -11 14 -34 30 -51 27 -27 30 -36 30 -94 l0 -64 -68 0 c-86
0 -100 12 -104 95 -3 52 -6 60 -23 60 -18 0 -20 -8 -23 -62 -2 -35 -7 -63 -12
-63 -5 0 -16 -13 -25 -30 -22 -42 -10 -78 31 -97 30 -15 35 -15 58 1 14 9 26
21 26 26 0 6 66 10 171 10 168 0 172 0 201 -25 37 -32 58 -32 92 0 27 25 30
25 196 25 167 0 169 0 194 -25 32 -32 60 -32 91 0 30 29 32 64 5 98 -18 23
-20 40 -20 206 0 176 1 181 25 217 26 39 32 82 15 115 -20 36 -63 49 -165 49
l-96 0 -57 53 c-93 87 -92 87 -217 87 l-110 0 -25 48 c-19 36 -36 53 -72 71
-47 23 -48 24 -48 72 0 41 -3 49 -18 49 -10 0 -22 -3 -25 -7z m443 -335 c115
-98 103 -93 203 -96 122 -4 137 -7 137 -34 0 -12 -10 -32 -22 -46 -22 -23 -23
-32 -26 -225 -4 -243 -1 -237 -109 -237 l-73 0 0 65 c0 57 3 66 24 80 57 38
51 125 -10 151 -40 17 -76 6 -100 -31 -25 -39 -77 -35 -120 10 -28 28 -34 41
-34 79 0 35 6 51 25 70 31 31 33 83 6 117 -15 18 -29 23 -65 24 -35 0 -54 7
-81 28 -38 31 -40 34 -25 71 9 26 11 26 109 26 l100 0 61 -52z m-230 -467 c5
-11 19 -23 30 -26 17 -5 20 -15 20 -58 -1 -71 -22 -86 -127 -89 l-78 -3 -3 66
c-3 61 -1 69 25 97 23 24 37 30 75 31 37 1 49 -3 58 -18z m270 -13 c28 -30 30
-38 28 -95 l-3 -63 -79 0 c-100 0 -116 12 -116 83 0 68 35 106 98 107 35 0 47
-5 72 -32z"/>
<path d="M823 1160 c-12 -5 -27 -18 -33 -29 -10 -19 -20 -21 -119 -21 -84 0
-111 -3 -121 -15 -10 -12 -10 -18 0 -30 10 -12 37 -15 119 -15 102 0 109 -1
131 -25 16 -17 34 -25 57 -25 48 0 70 14 82 53 26 77 -41 137 -116 107z"/>
</g>
</svg>
